# Blender v2.80 (sub 75) OBJ File: 'HEADQUARTERS.blend'
# www.blender.org
o beam_0.5x2_Cube.025_beam_0.5x2_Cube.057
v -20.011932 12.143341 -3.618772
v -20.011932 12.143341 -3.566550
v -20.011932 12.143341 -3.963587
v -20.011932 12.143341 -3.911365
v -20.011932 12.462988 -3.509883
v -20.011932 12.462988 -4.020254
v -20.011932 12.093342 -3.566551
v -20.011932 12.093342 -3.509885
v -20.011932 12.093342 -4.020255
v -20.011932 12.093342 -3.963588
v -20.011932 12.093342 -3.911366
v -20.011932 12.093342 -3.618773
v -19.961933 12.093342 -3.618773
v -19.961933 12.093342 -3.566551
v -19.961933 12.093342 -3.963588
v -19.961933 12.093342 -3.911366
v -20.011932 8.369497 -3.963587
v -20.011934 12.093341 -3.963587
v -20.011934 12.093341 -4.020254
v -20.011932 8.369497 -4.020253
v -20.011932 8.369497 -3.509883
v -20.011932 12.093341 -3.509883
v -20.011932 12.093341 -3.566550
v -20.011932 8.369497 -3.566550
v -20.011932 8.369497 -3.618772
v -20.011932 12.093341 -3.618773
v -20.011932 12.093341 -3.911366
v -20.011932 8.369497 -3.911365
v -19.961933 8.369497 -3.911365
v -19.961933 12.093341 -3.911366
v -19.961933 12.093341 -3.963587
v -19.961933 8.369497 -3.963587
v -19.961933 8.369497 -3.566550
v -19.961933 12.093341 -3.566550
v -19.961933 12.093341 -3.618773
v -19.961933 8.369497 -3.618772
v -19.642286 12.093341 -4.020254
v -19.642286 8.369497 -4.020253
v -19.642284 8.369497 -3.509883
v -19.642286 12.093341 -3.509884
vt 0.232355 0.412871
vt 0.222440 0.402956
vt 0.235865 0.389530
vt 0.245780 0.399445
vt 0.222440 0.389530
vt 0.245780 0.412871
vt 0.198926 0.399445
vt 0.208841 0.389530
vt 0.222266 0.402956
vt 0.212351 0.412870
vt 0.198926 0.412870
vt 0.222266 0.389530
vt 0.099327 0.488799
vt 0.000087 0.389570
vt 0.099327 0.389530
vt 0.099321 0.389565
vt 0.198752 0.389530
vt 0.198752 0.488782
vt 0.198752 0.488782
vt 0.099500 0.488782
vt 0.000087 0.274886
vt 0.999912 0.274882
vt 0.999912 0.290096
vt 0.000087 0.290108
vt 0.000087 0.099334
vt 0.999911 0.099350
vt 0.999911 0.114564
vt 0.000087 0.114556
vt 0.000087 0.155441
vt 0.999911 0.155443
vt 0.999911 0.234003
vt 0.000087 0.234001
vt 0.000087 0.247434
vt 0.999911 0.247427
vt 0.999912 0.261449
vt 0.000087 0.261462
vt 0.000087 0.127989
vt 0.999911 0.127989
vt 0.999911 0.142010
vt 0.000087 0.142017
vt 0.999913 0.389344
vt 0.000089 0.389357
vt 0.000089 0.000087
vt 0.999913 0.000101
vn -0.6325 -0.6324 -0.4472
vn -0.6325 -0.6325 0.4472
vn 0.0000 -0.0000 1.0000
vn 0.0000 0.0000 -1.0000
vn -1.0000 -0.0000 0.0000
s 1
f 2/1/1 1/2/2 13/3/2 14/4/1
f 13/3/2 1/2/2 12/5/3
f 14/4/1 7/6/4 2/1/1
f 4/7/1 3/8/2 15/9/2 16/10/1
f 16/10/1 11/11/4 4/7/1
f 15/9/2 3/8/2 10/12/3
f 6/13/4 37/14/4 19/15/4 9/16/4
f 5/17/3 8/18/3 22/19/3 40/20/3
f 17/21/5 18/22/5 19/23/5 20/24/5
f 21/25/5 22/26/5 23/27/5 24/28/5
f 25/29/5 26/30/5 27/31/5 28/32/5
f 29/33/5 30/34/5 31/35/5 32/36/5
f 33/37/5 34/38/5 35/39/5 36/40/5
f 24/28/4 23/27/4 34/38/4 33/37/4
f 28/32/4 27/31/4 30/34/4 29/33/4
f 18/22/3 17/21/3 32/36/3 31/35/3
f 26/30/3 25/29/3 36/40/3 35/39/3
f 20/24/4 19/23/4 37/41/4 38/42/4
f 22/26/3 21/25/3 39/43/3 40/44/3
