# Blender v2.80 (sub 75) OBJ File: 'HEADQUARTERS.blend'
# www.blender.org
o beam_0.5x2_Cube.386_beam_0.5x2_Cube.418
v -22.100637 8.319254 -10.129147
v -22.100637 8.319254 -10.421740
v -22.100637 8.319254 -10.473961
v -22.048414 8.369253 -10.421740
v -22.048414 8.368959 -10.473961
v -22.445452 8.319254 -10.129147
v -22.445452 8.319254 -10.076924
v -22.502119 8.368959 -10.530627
v -22.445452 8.319254 -10.421740
v -22.100637 8.368959 -10.129147
v -21.991488 8.368959 -10.020257
v -22.100637 8.368959 -10.473961
v -22.100637 8.368959 -10.421740
v -22.445452 8.319254 -10.473961
v -22.048414 8.319254 -10.421740
v -22.048414 8.319254 -10.473961
v -21.991488 8.368959 -10.473961
v -22.393230 8.319254 -10.129147
v -22.393230 8.319254 -10.473961
v -22.393230 8.319254 -10.421740
v -22.393230 8.319254 -10.076924
v -22.445452 8.368959 -10.129147
v -22.445452 8.368959 -10.076924
v -22.445452 8.368959 -10.020257
v -22.445452 8.368959 -10.473961
v -22.445452 8.368959 -10.421740
v -22.393230 8.368959 -10.129147
v -22.393230 8.368959 -10.076924
v -22.393230 8.368959 -10.020257
v -22.393230 8.368959 -10.473961
v -22.393230 8.368959 -10.421740
v -21.991488 8.369253 -10.421740
v -22.048155 8.369253 -10.421740
v -22.048414 8.368959 -10.076924
v -23.941938 8.368959 -10.129145
v -23.941938 8.368959 -10.076922
v -23.941938 8.318959 -10.129145
v -23.941938 8.318959 -10.076922
v -23.941938 8.318959 -10.473960
v -23.941938 8.368959 -10.020256
v -23.941938 8.368959 -10.530626
v -23.941938 8.318959 -10.421738
v -23.941938 8.368959 -10.421738
v -23.941938 8.368959 -10.473960
v -22.100637 8.319550 -11.970257
v -22.048416 8.369254 -11.970257
v -22.502119 8.369254 -11.970257
v -22.100637 8.369254 -11.970257
v -22.445454 8.319550 -11.970257
v -22.048416 8.319550 -11.970257
v -21.991749 8.369255 -11.970257
v -22.393230 8.319550 -11.970257
v -22.445454 8.369254 -11.970257
v -22.393230 8.369254 -11.970257
v -22.048414 8.319254 -10.076924
vt 0.320929 0.662722
vt 0.320929 0.634778
vt 0.485423 0.634778
vt 0.485423 0.662722
vt 0.869504 0.192854
vt 0.841560 0.192854
vt 0.841560 0.028361
vt 0.869504 0.028360
vt 0.067885 0.505799
vt 0.038291 0.476835
vt 0.262231 0.476835
vt 0.262224 0.505799
vt 0.262224 0.536231
vt 0.098586 0.536231
vt 0.485423 0.442340
vt 0.485423 0.470284
vt 0.320929 0.470284
vt 0.320929 0.442340
vt 0.262224 0.699875
vt 0.262224 0.730300
vt 0.098367 0.730300
vt 0.098586 0.699875
vt 0.067885 0.699875
vt 0.067438 0.730300
vt 0.036884 0.730223
vt 0.038291 0.699875
vt 0.292029 0.699875
vt 0.292019 0.730300
vt 0.292488 0.536231
vt 0.292481 0.505799
vt 0.513367 0.470284
vt 0.513367 0.634778
vt 0.292985 0.634778
vt 0.292985 0.470284
vt 0.000248 0.442340
vt 0.000248 0.699875
vt 0.262224 0.442340
vt 0.028192 0.249405
vt 0.028192 0.413899
vt 0.000248 0.413899
vt 0.000248 0.249405
vt 0.262238 0.444010
vt 0.292488 0.444023
vt 0.292474 0.476999
vt 0.262224 0.476835
vt 0.000248 0.730223
vt 0.000248 0.192853
vt 0.000248 0.028360
vt 0.841557 0.730878
vt 0.841554 0.760236
vt 0.000248 0.760155
vt 0.000251 0.730796
vt 0.841560 0.220798
vt 0.000248 0.220964
vt 0.841567 0.820676
vt 0.841564 0.852534
vt 0.000250 0.852479
vt 0.000252 0.820622
vt 0.841563 0.880478
vt 0.841567 0.909838
vt 0.000252 0.909948
vt 0.000248 0.880590
vt 0.841557 0.788180
vt 0.809703 0.820041
vt 0.000254 0.820125
vt 0.000251 0.788266
vt 0.841560 0.000416
vt 0.000248 0.000248
vt 0.929802 0.000248
vt 0.959161 0.000248
vt 0.959161 0.841454
vt 0.929801 0.841454
vt 0.841455 0.967748
vt 0.841458 0.999752
vt 0.000251 0.999683
vt 0.000248 0.967824
vt 0.028187 0.441843
vt 0.869400 0.413899
vt 0.869395 0.441842
vt 0.901858 0.000254
vt 0.901858 0.841459
vt 0.841455 0.910444
vt 0.841458 0.939804
vt 0.000251 0.939881
vt 0.000248 0.910523
vt 0.869400 0.249405
vt 0.028187 0.221461
vt 0.869395 0.221461
vt 0.870000 0.032111
vt 0.870000 0.841459
vn 1.0000 0.0000 0.0000
vn -1.0000 0.0000 0.0000
vn 0.0000 1.0000 0.0000
vn 0.0000 0.0000 -1.0000
vn 0.0000 0.0000 1.0000
vn -0.0004 1.0000 0.0008
vn 0.0000 1.0000 -0.0056
vn -1.0000 0.0026 0.0025
vn -0.0002 1.0000 0.0000
vn 0.0000 1.0000 0.0002
vn -0.0001 1.0000 0.0002
s off
f 2/1/1 13/2/1 10/3/1 1/4/1
f 9/5/1 26/6/1 22/7/1 6/8/1
f 55/9/2 34/10/2 4/11/2 15/12/2
f 15/12/3 2/13/3 1/14/3 55/9/3
f 18/15/2 27/16/2 31/17/2 20/18/2
f 20/19/3 9/20/3 6/21/3 18/22/3
f 21/23/4 7/24/4 23/25/4 28/26/4
f 9/20/3 20/19/3 19/27/3 14/28/3
f 2/13/3 3/29/3 19/27/3 20/19/3
f 3/29/3 2/13/3 15/12/3 16/30/3
f 6/21/3 7/24/3 21/23/3 18/22/3
f 21/23/3 55/9/3 1/14/3 18/22/3
f 10/3/3 13/2/3 31/17/3 27/16/3
f 10/3/5 27/16/5 18/31/5 1/32/5
f 2/33/4 20/34/4 31/17/4 13/2/4
f 11/35/3 34/10/3 28/26/3 29/36/3
f 34/10/6 11/35/6 32/37/6 4/11/6
f 55/9/4 21/23/4 28/26/4 34/10/4
f 12/38/5 30/39/5 19/40/5 3/41/5
f 32/42/7 17/43/7 5/44/7 33/45/7
f 16/30/8 15/12/8 33/45/8 5/44/8
f 28/26/3 23/25/3 24/46/3 29/36/3
f 22/7/3 26/6/3 43/47/3 35/48/3
f 9/49/9 14/50/9 39/51/9 42/52/9
f 26/6/4 9/53/4 42/54/4 43/47/4
f 24/55/3 23/56/3 36/57/3 40/58/3
f 7/59/9 6/60/9 37/61/9 38/62/9
f 23/56/4 7/59/4 38/62/4 36/57/4
f 25/63/3 8/64/3 41/65/3 44/66/3
f 6/67/5 22/7/5 35/48/5 37/68/5
f 14/50/5 25/63/5 44/66/5 39/51/5
f 14/69/10 19/70/10 52/71/10 49/72/10
f 5/73/10 17/74/10 51/75/10 46/76/10
f 19/77/2 30/39/2 54/78/2 52/79/2
f 25/80/1 14/69/1 49/72/1 53/81/1
f 3/82/10 16/83/10 50/84/10 45/85/10
f 16/83/2 5/73/2 46/76/2 50/84/2
f 30/39/10 12/38/10 48/86/10 54/78/10
f 12/38/1 3/87/1 45/88/1 48/86/1
f 8/89/11 25/80/11 53/81/11 47/90/11
