# Blender v2.80 (sub 75) OBJ File: 'HEADQUARTERS.blend'
# www.blender.org
o beam_0.5x2_Cube.003_beam_0.5x2_Cube.005
v -15.882332 48.323982 -3.935915
v -15.882332 48.323982 -3.643322
v -15.882332 48.323982 -3.534434
v -15.882332 48.323982 -3.591100
v -15.934553 48.373688 -3.935915
v -15.934553 48.373688 -3.988137
v -15.934553 48.373688 -4.044804
v -15.934553 48.373688 -3.534434
v -15.934553 48.373688 -3.643322
v -15.934553 48.373688 -3.591100
v -15.480849 48.373688 -3.935915
v -15.480849 48.373688 -3.988137
v -15.480849 48.323689 -3.935915
v -15.480849 48.323689 -3.988137
v -15.480849 48.323689 -3.591100
v -15.480849 48.373688 -4.044804
v -15.480849 48.373688 -3.534434
v -15.480849 48.323689 -3.643322
v -15.480849 48.373688 -3.643322
v -15.480849 48.373688 -3.591100
v -15.882332 48.373688 -3.935915
v -15.882332 48.373688 -4.044804
v -15.882332 48.373688 -3.534434
v -15.882332 48.373688 -3.643322
v -15.882332 48.373688 -3.591100
v -15.537517 48.323982 -3.935915
v -15.537517 48.323982 -3.534434
v -15.537517 48.323982 -3.643322
v -15.537517 48.323982 -3.988137
v -15.537517 48.323982 -3.591100
v -15.934553 48.323982 -3.935915
v -15.934553 48.323982 -3.534434
v -15.934553 48.323982 -3.591100
v -15.991220 48.373688 -3.935915
v -15.991220 48.373688 -3.988137
v -15.991220 48.373688 -4.044804
v -15.991220 48.373688 -3.534434
v -15.991220 48.373688 -3.643322
v -15.991220 48.373688 -3.591100
v -15.589739 48.323982 -3.935915
v -15.589739 48.323982 -3.534434
v -15.589739 48.323982 -3.643322
v -15.589739 48.323689 -3.988137
v -15.589739 48.323982 -3.591100
v -15.537517 48.373688 -3.935915
v -15.537517 48.373688 -3.988137
v -15.537517 48.373688 -4.044804
v -15.537517 48.373688 -3.534434
v -15.537517 48.373688 -3.643322
v -15.537517 48.373688 -3.591100
v -15.589739 48.373688 -3.935915
v -15.589739 48.373688 -3.988137
v -15.589739 48.373688 -4.044804
v -15.589739 48.373688 -3.534434
v -15.589739 48.373688 -3.643322
v -15.589739 48.373688 -3.591100
v -15.991480 48.373684 -3.935915
v -15.991480 48.373684 -3.988137
v -15.934813 48.373981 -3.935915
v -15.991480 48.373684 -3.591100
v -15.991480 48.373684 -3.643322
v -15.934813 48.373981 -3.591100
v -15.934813 48.373981 -3.643322
v -15.882332 48.373688 -3.988137
v -15.991218 48.323689 -3.935915
v -15.991218 48.323689 -3.988137
v -15.934553 48.323689 -3.988137
v -15.991218 48.323689 -3.591100
v -15.991218 48.323689 -3.643322
v -15.934551 48.323986 -3.643322
v -15.934553 48.323689 -4.044804
v -15.537517 48.323689 -3.988137
v -15.537517 48.323689 -4.044804
v -15.589739 48.323689 -4.044804
v -15.882332 48.323689 -3.988137
v -15.882332 48.323689 -4.044804
vt 0.434223 0.802133
vt 0.379197 0.802133
vt 0.379197 0.739401
vt 0.434223 0.739401
vt 0.620803 0.434228
vt 0.620804 0.379203
vt 0.944717 0.379199
vt 0.944717 0.434228
vt 0.553472 0.684374
vt 0.553472 0.739401
vt 0.490740 0.739401
vt 0.490740 0.684374
vt 0.683535 0.814007
vt 0.628509 0.814007
vt 0.628509 0.490094
vt 0.683535 0.490094
vt 0.684051 0.434743
vt 0.739077 0.434743
vt 0.739077 0.758656
vt 0.684055 0.758656
vt 0.802324 0.552501
vt 0.802324 0.497475
vt 0.865057 0.497476
vt 0.865057 0.552501
vt 0.565261 0.062989
vt 0.565261 0.120801
vt 0.502529 0.120801
vt 0.502529 0.062989
vt 0.444717 0.062991
vt 0.444717 0.120801
vt 0.120804 0.120800
vt 0.120804 0.062988
vt 0.944716 0.000267
vt 0.944716 0.055286
vt 0.620802 0.055286
vt 0.620803 0.000258
vt 0.000258 0.739401
vt 0.055284 0.739401
vt 0.055284 0.802133
vt 0.000258 0.802133
vt 0.565260 0.444714
vt 0.565260 0.502526
vt 0.502528 0.502526
vt 0.502528 0.444714
vt 0.444716 0.444714
vt 0.444716 0.502526
vt 0.120803 0.502526
vt 0.120803 0.444713
vt 0.502528 0.565260
vt 0.444716 0.565260
vt 0.062991 0.502526
vt 0.062990 0.444713
vt 0.062990 0.120800
vt 0.062991 0.062988
vt 0.062992 0.565260
vt 0.120804 0.565259
vt 0.999742 0.055291
vt 0.999742 0.379203
vt 0.565778 0.379199
vt 0.565776 0.055291
vt 0.565776 0.490094
vt 0.565777 0.814007
vt 0.490740 0.802134
vt 0.553472 0.802133
vt 0.435389 0.802134
vt 0.435714 0.739401
vt 0.565777 0.434743
vt 0.628509 0.435068
vt 0.435389 0.628508
vt 0.498122 0.628508
vt 0.498122 0.683534
vt 0.435389 0.683859
vt 0.435389 0.565775
vt 0.498122 0.565775
vt 0.055609 0.683859
vt 0.055609 0.621126
vt 0.379522 0.621126
vt 0.379522 0.683859
vt 0.746783 0.821904
vt 0.684051 0.821904
vt 0.684051 0.759171
vt 0.746783 0.759171
vt 0.801809 0.434743
vt 0.801809 0.758656
vt 0.055609 0.565775
vt 0.379522 0.565775
vt 0.628509 0.869033
vt 0.565777 0.869359
vt 0.055284 0.684374
vt 0.379197 0.684374
vt 0.802325 0.434743
vt 0.865057 0.434743
vt 0.063506 0.802653
vt 0.126239 0.802648
vt 0.126239 0.858000
vt 0.063508 0.858000
vt 0.802325 0.679296
vt 0.802324 0.616558
vt 0.857673 0.616562
vt 0.857673 0.679296
vt 0.062990 0.000258
vt 0.120802 0.000258
vt 0.857675 0.553021
vt 0.857675 0.616042
vt 0.802329 0.615755
vt 0.802324 0.553017
vt 0.444717 0.000258
vt 0.502529 0.000258
vt 0.126755 0.802653
vt 0.189488 0.802648
vt 0.189488 0.858000
vt 0.126757 0.858000
vt 0.000258 0.120800
vt 0.000258 0.062988
vt 0.000258 0.860461
vt 0.000258 0.802648
vt 0.062991 0.802648
vt 0.062991 0.860461
vt 0.802134 0.759171
vt 0.802134 0.821904
vt 0.553473 0.565775
vt 0.553473 0.628508
vt 0.000258 0.683859
vt 0.000258 0.621126
vt 0.434873 0.621126
vt 0.434873 0.683859
vn -1.0000 0.0000 0.0000
vn 1.0000 0.0000 -0.0000
vn 0.0000 1.0000 0.0000
vn 0.0052 1.0000 0.0000
vn 0.0000 1.0000 0.0001
vn -0.0028 1.0000 -0.0028
vn 0.0000 1.0000 -0.0056
vn 0.0000 0.0000 -1.0000
vn 0.0000 -0.0000 1.0000
vn -0.0026 1.0000 -0.0029
vn -0.0052 1.0000 -0.0000
s off
f 3/1/1 23/2/1 25/3/1 4/4/1
f 2/5/1 24/6/1 21/7/1 1/8/1
f 27/9/1 48/10/1 50/11/1 30/12/1
f 28/13/1 49/14/1 45/15/1 26/16/1
f 31/17/2 5/18/2 9/19/2 70/20/2
f 33/21/2 10/22/2 8/23/2 32/24/2
f 32/25/3 3/26/3 4/27/3 33/28/3
f 70/29/3 2/30/3 1/31/3 31/32/3
f 40/33/2 51/34/2 55/35/2 42/36/2
f 44/37/2 56/38/2 54/39/2 41/40/2
f 41/41/3 27/42/3 30/43/3 44/44/3
f 42/45/3 28/46/3 26/47/3 40/48/3
f 15/49/4 18/50/4 28/46/4 30/43/4
f 28/46/3 42/45/3 44/44/3 30/43/3
f 2/30/3 4/27/3 44/44/3 42/45/3
f 4/27/5 2/30/5 70/29/5 33/28/5
f 26/47/6 29/51/6 43/52/6 40/48/6
f 1/31/7 75/53/7 67/54/7 31/32/7
f 43/52/7 75/53/7 1/31/7 40/48/7
f 14/55/4 29/51/4 26/47/4 13/56/4
f 21/7/3 24/6/3 55/35/3 51/34/3
f 21/7/8 51/34/8 40/57/8 1/58/8
f 2/59/9 42/60/9 55/35/9 24/6/9
f 11/61/3 45/15/3 49/14/3 19/62/3
f 20/63/3 50/11/3 48/10/3 17/64/3
f 20/63/8 15/65/8 30/66/8 50/11/8
f 11/61/8 13/67/8 26/68/8 45/15/8
f 12/69/9 46/70/9 29/71/9 14/72/9
f 16/73/3 47/74/3 46/70/3 12/69/3
f 22/75/3 64/76/3 52/77/3 53/78/3
f 7/79/3 36/80/3 35/81/3 6/82/3
f 5/18/3 34/83/3 38/84/3 9/19/3
f 75/85/9 43/86/9 52/77/9 64/76/9
f 19/62/9 49/14/9 28/87/9 18/88/9
f 25/3/8 56/38/8 44/89/8 4/90/8
f 25/3/3 23/2/3 54/39/3 56/38/3
f 10/22/3 39/91/3 37/92/3 8/23/3
f 57/93/8 59/94/8 31/95/8 65/96/8
f 63/97/9 61/98/9 69/99/9 70/100/9
f 66/101/10 65/102/10 31/32/10 67/54/10
f 6/103/9 58/104/9 66/105/9 67/106/9
f 69/107/11 68/108/11 33/28/11 70/29/11
f 60/109/8 62/110/8 33/111/8 68/112/8
f 67/54/3 75/53/3 76/113/3 71/114/3
f 43/115/3 72/116/3 73/117/3 74/118/3
f 7/79/2 6/82/2 67/119/2 71/120/2
f 46/70/1 47/74/1 73/121/1 72/122/1
f 64/76/1 22/75/1 76/123/1 75/124/1
f 53/78/2 52/77/2 43/125/2 74/126/2
l 65 34
l 35 66
l 69 38
l 68 39
