# Blender v2.80 (sub 75) OBJ File: 'HEADQUARTERS.blend'
# www.blender.org
o wall2_2x2.001_Cube.165_wall2_2x2.001_Cube.018
v -22.261127 47.345093 -8.044807
v -22.217892 47.254559 -8.044807
v -22.213383 47.235634 -8.044807
v -22.213381 48.004337 -8.044807
v -22.217892 47.985413 -8.044807
v -22.261127 47.881134 -8.044807
v -22.261127 47.809319 -8.044807
v -22.236126 47.809319 -8.044807
v -22.236126 47.881134 -8.044807
v -22.261127 47.894878 -8.044807
v -22.261127 47.358837 -8.044807
v -22.286127 47.477985 -8.044807
v -22.261127 47.430653 -8.044807
v -22.236126 47.430653 -8.044807
v -22.236126 47.358837 -8.044807
v -22.286127 47.761986 -8.044807
v -19.991480 47.881428 -10.314457
v -19.991480 47.895172 -10.314457
v -19.991480 47.430946 -10.314456
v -19.991480 47.478279 -10.339456
v -19.991480 47.345387 -10.314456
v -19.991480 47.359131 -10.314456
v -19.991480 47.985706 -10.271222
v -19.991480 47.881428 -10.289456
v -19.991480 47.430946 -10.289456
v -19.991480 47.254852 -10.271222
v -19.991480 47.235928 -10.266711
v -19.991480 48.004631 -10.266711
v -19.991480 47.809612 -10.314457
v -19.991480 47.809612 -10.289456
v -19.991480 47.359131 -10.289456
v -19.991480 47.762280 -10.339457
v -20.407148 47.254856 -9.857423
v -20.437719 47.345390 -9.887994
v -20.025240 47.345390 -10.300472
v -19.994669 47.254856 -10.269901
v -20.403957 47.235928 -9.854233
v -20.403957 48.004631 -9.854233
v -19.994669 47.985706 -10.269901
v -20.407148 47.985706 -9.857423
v -21.834665 47.894875 -8.491048
v -21.834665 47.881130 -8.491048
v -22.247143 47.881130 -8.078569
v -22.247143 47.894875 -8.078569
v -20.477003 47.881428 -9.848710
v -20.437719 47.881428 -9.887994
v -20.420042 47.881428 -9.870316
v -20.459326 47.881428 -9.831032
v -21.852343 47.477985 -8.508725
v -21.834665 47.430653 -8.491048
v -22.247143 47.430653 -8.078568
v -22.264820 47.477985 -8.096247
v -21.834665 47.358837 -8.491048
v -21.834665 47.345093 -8.491048
v -22.247143 47.345093 -8.078568
v -22.247143 47.358837 -8.078568
v -20.025240 47.881428 -10.300472
v -20.025240 47.809612 -10.300472
v -20.007563 47.809612 -10.282795
v -20.007563 47.881428 -10.282795
v -21.804092 47.985413 -8.460476
v -22.216572 47.985413 -8.047997
v -20.025240 47.895172 -10.300472
v -20.437719 47.895172 -9.887994
v -21.764809 47.985413 -8.499761
v -21.795380 47.894875 -8.530332
v -21.795380 47.367542 -8.530332
v -20.477003 47.367836 -9.848710
v -20.459326 47.367836 -9.831032
v -21.777702 47.367542 -8.512653
v -21.816986 47.881130 -8.473370
v -22.229465 47.881130 -8.060891
v -20.025240 47.359131 -10.300472
v -20.437719 47.359131 -9.887994
v -21.795380 47.358837 -8.530332
v -21.795380 47.345093 -8.530332
v -20.042917 47.478283 -10.318150
v -20.025240 47.430946 -10.300472
v -20.437719 47.430946 -9.887994
v -20.455397 47.478283 -9.905671
v -21.830736 47.430653 -8.565686
v -21.795380 47.881130 -8.530332
v -21.777702 47.881130 -8.512653
v -21.816986 47.430653 -8.473370
v -22.229465 47.430653 -8.060891
v -22.216572 47.254559 -8.047997
v -21.804092 47.254559 -8.460476
v -21.800903 47.235634 -8.457287
v -20.446432 47.254856 -9.818138
v -20.443241 47.235928 -9.814949
v -21.800903 48.004333 -8.457287
v -20.443243 48.004631 -9.814949
v -20.446432 47.985706 -9.818138
v -20.477003 47.345390 -9.848710
v -21.764809 47.254559 -8.499760
v -21.761620 47.235634 -8.496571
v -21.761620 48.004333 -8.496571
v -20.477003 47.895172 -9.848710
v -20.477003 47.872723 -9.848710
v -21.795380 47.872425 -8.530332
v -21.777702 47.872425 -8.512653
v -20.459326 47.872723 -9.831032
v -20.420042 47.430946 -9.870316
v -20.512358 47.430946 -9.884065
v -20.477003 47.359131 -9.848710
v -22.247143 47.809315 -8.078569
v -22.229465 47.809315 -8.060891
v -21.816986 47.358837 -8.473370
v -22.229465 47.358837 -8.060891
v -21.816986 47.809315 -8.473370
v -20.420042 47.809612 -9.870316
v -20.007563 47.430946 -10.282795
v -20.007563 47.359131 -10.282795
v -20.420042 47.359131 -9.870317
v -21.777702 47.358837 -8.512653
v -20.459326 47.359131 -9.831032
v -20.437719 47.809612 -9.887994
v -21.834665 47.809315 -8.491048
v -20.512358 47.809612 -9.884066
v -21.830736 47.809315 -8.565686
v -20.455397 47.762280 -9.905671
v -21.852343 47.761982 -8.508725
v -20.042917 47.762280 -10.318150
v -22.264820 47.761982 -8.096247
vt 0.094961 0.000053
vt 0.186069 0.000768
vt 0.184897 0.018223
vt 0.095883 0.017691
vt 0.077796 0.005217
vt 0.079321 0.016892
vt 0.209863 0.011038
vt 0.231738 0.011453
vt 0.231841 0.017023
vt 0.209292 0.016670
vt 0.243970 0.007596
vt 0.274134 0.017556
vt 0.273998 0.018629
vt 0.242999 0.018691
vt 0.280036 0.018682
vt 0.238952 0.007597
vt 0.239228 0.018520
vt 0.203243 0.006179
vt 0.201429 0.017631
vt 0.070837 0.009942
vt 0.071329 0.015893
vt 0.048589 0.010276
vt 0.048600 0.016094
vt 0.041405 0.006559
vt 0.041144 0.017375
vt 0.036472 0.006479
vt 0.037337 0.017554
vt 0.006153 0.015966
vt 0.006225 0.017305
vt 0.006883 0.985533
vt 0.000857 0.984726
vt 0.006979 0.984442
vt 0.037532 0.994878
vt 0.038213 0.983715
vt 0.049736 0.990522
vt 0.042618 0.994687
vt 0.041987 0.983697
vt 0.049460 0.984922
vt 0.071653 0.990359
vt 0.072070 0.984730
vt 0.078375 0.994972
vt 0.079887 0.983500
vt 0.095554 0.999947
vt 0.096381 0.982509
vt 0.186332 0.999218
vt 0.185156 0.981823
vt 0.210051 0.988966
vt 0.203452 0.993814
vt 0.201636 0.982398
vt 0.209476 0.983351
vt 0.231868 0.988531
vt 0.231967 0.982974
vt 0.280036 0.981277
vt 0.274150 0.982406
vt 0.274013 0.981335
vt 0.244071 0.992369
vt 0.243094 0.981303
vt 0.239066 0.992371
vt 0.239332 0.981476
vt 0.272639 0.199548
vt 0.241749 0.199284
vt 0.000310 0.199025
vt 0.000165 0.017310
vt 0.006337 0.198967
vt 0.037234 0.801827
vt 0.041353 0.801912
vt 0.278636 0.199633
vt 0.041961 0.216179
vt 0.041437 0.198776
vt 0.049020 0.198570
vt 0.049938 0.216151
vt 0.184273 0.799213
vt 0.201680 0.800150
vt 0.237559 0.801243
vt 0.241652 0.801145
vt 0.006116 0.801827
vt 0.037337 0.198863
vt 0.006435 0.784539
vt 0.037377 0.784537
vt 0.219295 0.781227
vt 0.219385 0.219250
vt 0.226116 0.216488
vt 0.226021 0.783977
vt 0.048965 0.802100
vt 0.237654 0.199187
vt 0.236954 0.783916
vt 0.241364 0.783932
vt 0.201726 0.200307
vt 0.184277 0.201258
vt 0.196035 0.779531
vt 0.041824 0.784464
vt 0.049827 0.784466
vt 0.208250 0.802525
vt 0.272487 0.800867
vt 0.278469 0.800782
vt 0.272278 0.216624
vt 0.278238 0.216688
vt 0.000053 0.801780
vt 0.000661 0.216201
vt 0.006644 0.216150
vt 0.241476 0.216515
vt 0.272144 0.783830
vt 0.000435 0.784484
vt 0.037529 0.216127
vt 0.278091 0.783771
vt 0.059690 0.219016
vt 0.059618 0.781556
vt 0.052849 0.784401
vt 0.052938 0.216200
vt 0.208298 0.197925
vt 0.196110 0.220969
vt 0.237059 0.216535
vt 0.230003 0.801479
vt 0.070871 0.802961
vt 0.070867 0.197638
vt 0.230089 0.198952
vt 0.229007 0.783990
vt 0.229103 0.216469
vt 0.077431 0.200027
vt 0.077459 0.800549
vt 0.083041 0.220813
vt 0.082996 0.779708
vt 0.094897 0.200992
vt 0.094980 0.799532
vn -0.3740 0.2114 -0.9030
vn -0.3740 -0.2114 -0.9030
vn -0.5445 -0.2306 -0.8065
vn -0.5445 0.2306 -0.8065
vn -0.2406 0.7776 -0.5809
vn -0.4008 0.6779 -0.6163
vn -0.2391 -0.7809 -0.5771
vn -0.2391 0.7809 -0.5771
vn -0.3754 -0.1948 -0.9062
vn -0.3627 -0.3183 -0.8758
vn -0.5218 -0.3314 -0.7860
vn -0.5466 -0.2121 -0.8101
vn -0.6603 -0.2317 -0.7143
vn -0.3062 0.6000 -0.7391
vn -0.5189 0.3571 -0.7766
vn -0.2406 -0.7776 -0.5809
vn -0.4008 -0.6779 -0.6162
vn -0.2391 0.7808 -0.5772
vn -0.3061 -0.6000 -0.7391
vn -0.5189 -0.3571 -0.7766
vn -0.3753 0.1948 -0.9062
vn -0.5466 0.2121 -0.8101
vn -0.3501 0.4037 -0.8453
vn -0.4948 0.4233 -0.7589
vn -0.8759 0.3184 -0.3626
vn -0.7144 0.2317 -0.6603
vn -0.7861 0.3314 -0.5217
vn -0.9062 0.1948 -0.3753
vn -0.8101 0.2121 -0.5465
vn -0.5772 -0.7809 -0.2389
vn -0.7392 -0.6000 -0.3060
vn -0.7767 -0.3571 -0.5189
vn -0.5772 -0.7808 -0.2389
vn -0.5772 0.7808 -0.2391
vn -0.5771 0.7809 -0.2391
vn -0.5808 0.7776 -0.2407
vn -0.6162 0.6779 -0.4009
vn -0.9030 0.2114 -0.3741
vn -0.8065 0.2306 -0.5445
vn -0.9030 -0.2114 -0.3741
vn -0.8065 -0.2306 -0.5445
vn -0.5809 -0.7776 -0.2405
vn -0.6162 -0.6779 -0.4008
vn -0.5772 0.7809 -0.2390
vn -0.5771 0.7809 -0.2390
vn -0.7144 -0.2317 -0.6602
vn -0.8759 -0.3184 -0.3626
vn -0.7861 -0.3314 -0.5217
vn -0.9062 -0.1948 -0.3754
vn -0.8101 -0.2121 -0.5466
vn -0.7391 0.6000 -0.3062
vn -0.7766 0.3571 -0.5189
vn -0.6381 -0.4309 -0.6381
vn -0.6879 0.2319 -0.6878
vn -0.7071 0.0000 -0.7071
vn -0.6879 -0.2318 -0.6878
vn 0.0001 -1.0000 -0.0001
vn 0.0000 -1.0000 0.0000
vn -0.6252 -0.4670 -0.6253
vn -0.6381 0.4309 -0.6381
vn 0.0001 -1.0000 -0.0002
vn 0.0000 -1.0000 -0.0001
vn -0.6253 -0.4670 -0.6253
vn -0.8915 -0.4506 -0.0469
vn -0.6878 -0.2318 -0.6879
vn -0.6878 -0.2319 -0.6879
vn -0.7070 0.0000 -0.7072
vn -0.0001 1.0000 0.0001
vn 0.5308 -0.6608 -0.5307
vn -0.0469 -0.4506 -0.8915
vn -0.5542 -0.6210 -0.5543
vn 0.0000 1.0000 0.0000
vn -0.0001 1.0000 -0.0000
vn 0.0000 1.0000 -0.0001
vn -0.5308 0.6607 0.5308
vn 0.5308 0.6608 -0.5307
vn -0.5308 -0.6608 0.5308
vn -0.5543 0.6210 -0.5542
vn -0.0469 0.4506 -0.8915
vn -0.3546 -0.0000 -0.9350
vn -0.8915 0.4506 -0.0469
vn -0.9350 0.0000 -0.3547
vn -0.6253 0.4670 -0.6253
vn -0.6252 0.4670 -0.6253
s 1
f 32/1/1 20/2/2 77/3/3 123/4/4
f 29/5/5 32/1/1 123/4/4 58/6/6
f 25/7/7 31/8/8 113/9/8 112/10/7
f 21/11/9 26/12/10 36/13/11 35/14/12
f 26/12/10 27/15/13 36/13/11
f 22/16/14 21/11/9 35/14/12 73/17/15
f 31/8/8 22/16/14 73/17/15 113/9/8
f 19/18/16 25/7/7 112/10/7 78/19/17
f 20/2/2 19/18/16 78/19/17 77/3/3
f 30/20/18 29/5/5 58/6/6 59/21/18
f 24/22/7 30/20/18 59/21/18 60/23/7
f 17/24/19 24/22/7 60/23/7 57/25/20
f 18/26/21 17/24/19 57/25/20 63/27/22
f 23/28/23 18/26/21 63/27/22 39/29/24
f 5/30/25 4/31/26 62/32/27
f 10/33/28 5/30/25 62/32/27 44/34/29
f 9/35/30 6/36/31 43/37/32 72/38/33
f 6/36/31 10/33/28 44/34/29 43/37/32
f 8/39/34 9/35/30 72/38/33 107/40/35
f 7/41/36 8/39/34 107/40/35 106/42/37
f 16/43/38 7/41/36 106/42/37 124/44/39
f 12/45/40 16/43/38 124/44/39 52/46/41
f 14/47/30 13/48/42 51/49/43 85/50/30
f 13/48/42 12/45/40 52/46/41 51/49/43
f 15/51/44 14/47/30 85/50/30 109/52/45
f 3/53/46 2/54/47 86/55/48
f 2/54/47 1/56/49 55/57/50 86/55/48
f 1/56/49 11/58/51 56/59/52 55/57/50
f 11/58/51 15/51/44 109/52/45 56/59/52
f 33/60/53 34/61/53 35/14/12 36/13/11
f 38/62/54 28/63/54 39/29/54 40/64/54
f 41/65/55 42/66/55 43/37/32 44/34/29
f 33/60/56 36/13/11 27/15/13 37/67/56
f 45/68/57 46/69/58 47/70/58 48/71/57
f 49/72/59 50/73/59 51/49/43 52/46/41
f 53/74/55 54/75/55 55/57/50 56/59/52
f 61/76/60 41/65/60 44/34/29 62/32/27
f 39/29/24 63/27/22 64/77/60 40/64/60
f 65/78/60 66/79/60 41/65/60 61/76/60
f 67/80/61 68/81/61 69/82/61 70/83/61
f 43/37/62 42/66/62 71/84/62 72/38/62
f 73/17/15 35/14/12 34/61/55 74/85/55
f 75/86/55 76/87/55 54/75/55 53/74/55
f 77/3/3 78/19/17 79/88/63 80/89/63
f 81/90/64 67/80/64 50/73/64 49/72/64
f 42/66/62 82/91/57 83/92/57 71/84/62
f 51/49/62 50/73/62 84/93/62 85/50/62
f 86/55/48 87/94/56 88/95/56 3/53/46
f 89/96/65 33/60/56 37/67/56 90/97/66
f 63/27/22 57/25/20 46/69/55 64/77/55
f 66/79/67 82/91/67 42/66/55 41/65/55
f 4/31/26 91/98/54 61/76/54 62/32/27
f 92/99/54 38/62/54 40/64/54 93/100/54
f 86/55/48 55/57/50 54/75/53 87/94/53
f 89/96/53 94/101/53 34/61/53 33/60/53
f 87/94/53 54/75/53 76/87/53 95/102/53
f 95/102/53 76/87/53 94/101/53 89/96/53
f 91/98/54 97/103/54 65/78/54 61/76/54
f 97/103/54 92/99/54 93/100/54 65/78/54
f 64/77/55 46/69/55 45/68/55 98/104/55
f 98/104/55 45/68/55 82/91/67 66/79/67
f 87/94/56 95/102/65 96/105/65 88/95/56
f 95/102/65 89/96/65 90/97/66 96/105/65
f 99/106/68 100/107/68 101/108/68 102/109/68
f 68/81/69 79/88/69 103/110/69 69/82/69
f 80/89/70 79/88/70 68/81/70 104/111/70
f 104/111/71 68/81/71 67/80/71 81/90/71
f 74/85/55 34/61/55 94/101/55 105/112/55
f 105/112/55 94/101/55 76/87/55 75/86/55
f 46/69/58 57/25/58 60/23/58 47/70/58
f 40/64/60 64/77/60 98/104/60 93/100/60
f 93/100/60 98/104/60 66/79/60 65/78/60
f 84/93/55 108/113/55 109/52/55 85/50/55
f 71/84/55 110/114/55 107/40/55 72/38/55
f 60/23/55 59/21/55 111/115/55 47/70/55
f 83/92/55 101/108/55 110/114/55 71/84/55
f 112/10/55 113/9/55 114/116/55 103/110/55
f 70/83/55 115/117/55 108/113/55 84/93/55
f 103/110/55 114/116/55 116/118/55 69/82/55
f 69/82/55 116/118/55 115/117/55 70/83/55
f 47/70/55 111/115/55 102/109/55 48/71/55
f 48/71/55 102/109/55 101/108/55 83/92/55
f 82/91/57 45/68/57 48/71/57 83/92/57
f 73/17/72 74/85/72 114/116/72 113/9/72
f 75/86/73 53/74/72 108/113/72 115/117/73
f 74/85/72 105/112/73 116/118/73 114/116/72
f 53/74/72 56/59/72 109/52/72 108/113/72
f 58/6/74 117/119/74 111/115/74 59/21/74
f 105/112/73 75/86/73 115/117/73 116/118/73
f 79/88/58 78/19/58 112/10/58 103/110/58
f 118/120/72 106/42/72 107/40/72 110/114/72
f 100/107/75 118/120/75 110/114/75 101/108/75
f 117/119/76 99/106/76 102/109/76 111/115/76
f 50/73/77 67/80/77 70/83/77 84/93/77
f 99/106/78 119/121/78 120/122/78 100/107/78
f 119/121/55 104/111/55 81/90/55 120/122/55
f 117/119/79 121/123/79 119/121/79 99/106/79
f 121/123/80 80/89/80 104/111/80 119/121/80
f 100/107/81 120/122/81 122/124/81 118/120/81
f 120/122/82 81/90/82 49/72/82 122/124/82
f 58/6/6 123/4/4 121/123/83 117/119/83
f 123/4/4 77/3/3 80/89/55 121/123/55
f 118/120/84 122/124/84 124/44/39 106/42/37
f 122/124/55 49/72/55 52/46/41 124/44/39
l 23 28
