# Blender v2.80 (sub 75) OBJ File: 'landmine.blend'
# www.blender.org
o Cube.009
v -0.215332 0.000080 -0.000000
v -0.075506 0.047858 -0.000000
v -0.198940 0.000080 -0.082404
v -0.069758 0.047858 -0.028895
v -0.152263 0.000080 -0.152262
v -0.053391 0.047858 -0.053391
v -0.082404 0.000080 -0.198940
v -0.028895 0.047858 -0.069759
v -0.000000 0.000080 -0.215331
v 0.000000 0.047858 -0.075506
v 0.082404 0.000080 -0.198940
v 0.028895 0.047858 -0.069759
v 0.152262 0.000080 -0.152262
v 0.053390 0.047858 -0.053391
v 0.198940 0.000080 -0.082404
v 0.069758 0.047858 -0.028895
v 0.215331 0.000080 -0.000000
v 0.075506 0.047858 -0.000000
v 0.198940 0.000080 0.082404
v 0.069758 0.047858 0.028895
v 0.152262 0.000080 0.152262
v 0.053391 0.047858 0.053391
v 0.082404 0.000080 0.198940
v 0.028895 0.047858 0.069758
v -0.000000 0.000080 0.215331
v -0.000000 0.047858 0.075506
v -0.082404 0.000080 0.198940
v -0.028895 0.047858 0.069759
v -0.152262 0.000080 0.152262
v -0.053391 0.047858 0.053391
v -0.198941 0.000080 0.082404
v -0.069758 0.047858 0.028895
v -0.198940 0.019443 -0.082404
v -0.215332 0.019443 -0.000000
v -0.152263 0.019443 -0.152262
v -0.082404 0.019443 -0.198940
v -0.000000 0.019443 -0.215331
v 0.082404 0.019443 -0.198940
v 0.152262 0.019443 -0.152262
v 0.198940 0.019443 -0.082404
v 0.215331 0.019443 -0.000000
v 0.198940 0.019443 0.082404
v 0.152262 0.019443 0.152262
v 0.082404 0.019443 0.198940
v -0.000000 0.019443 0.215331
v -0.082404 0.019443 0.198940
v -0.152262 0.019443 0.152262
v -0.198941 0.019443 0.082404
v -0.155648 0.027600 -0.071508
v -0.177217 0.033422 -0.000000
v -0.125311 0.033422 -0.125311
v -0.071508 0.027600 -0.155647
v -0.000000 0.033422 -0.177217
v 0.071508 0.027600 -0.155647
v 0.125311 0.033422 -0.125311
v 0.155647 0.027600 -0.071508
v 0.177216 0.033422 -0.000000
v 0.155647 0.027600 0.071508
v 0.125311 0.033422 0.125311
v 0.071508 0.027600 0.155647
v -0.000000 0.033422 0.177216
v -0.071508 0.027600 0.155647
v -0.125311 0.033422 0.125311
v -0.155647 0.027600 0.071508
v -0.098380 0.037665 -0.047787
v -0.105712 0.045032 -0.000000
v -0.074750 0.045032 -0.074750
v -0.047787 0.037665 -0.098380
v -0.000000 0.045032 -0.105712
v 0.047787 0.037665 -0.098380
v 0.074750 0.045032 -0.074750
v 0.098379 0.037665 -0.047787
v 0.105712 0.045032 -0.000000
v 0.098379 0.037665 0.047787
v 0.074749 0.045032 0.074749
v 0.047787 0.037665 0.098380
v -0.000000 0.045032 0.105712
v -0.047787 0.037665 0.098379
v -0.074750 0.045032 0.074750
v -0.098379 0.037665 0.047787
v -0.065879 0.062835 -0.027288
v -0.071308 0.062835 -0.000000
v -0.050422 0.062835 -0.050422
v -0.027289 0.062835 -0.065879
v -0.000000 0.062835 -0.071307
v 0.027288 0.062835 -0.065879
v 0.050422 0.062835 -0.050422
v 0.065879 0.062835 -0.027288
v 0.071307 0.062835 -0.000000
v 0.065879 0.062835 0.027288
v 0.050421 0.062835 0.050422
v 0.027288 0.062835 0.065879
v -0.000000 0.062835 0.071307
v -0.027288 0.062835 0.065879
v -0.050422 0.062835 0.050422
v -0.065879 0.062835 0.027288
v -0.168028 0.032633 -0.069599
v -0.181872 0.032633 -0.000000
v -0.128603 0.032633 -0.128603
v -0.069599 0.032633 -0.168028
v -0.000000 0.032633 -0.181872
v 0.069599 0.032633 -0.168028
v 0.128602 0.032633 -0.128603
v 0.168027 0.032633 -0.069600
v 0.181872 0.032633 -0.000000
v 0.168027 0.032633 0.069599
v 0.128603 0.032633 0.128603
v 0.069599 0.032633 0.168028
v 0.000000 0.032633 0.181872
v -0.069600 0.032633 0.168027
v -0.128603 0.032633 0.128603
v -0.168029 0.032633 0.069599
v -0.093365 0.045822 -0.038673
v -0.101057 0.045822 -0.000000
v -0.071458 0.045822 -0.071458
v -0.038673 0.045822 -0.093364
v 0.000000 0.045822 -0.101057
v 0.038672 0.045822 -0.093365
v 0.071458 0.045822 -0.071458
v 0.093364 0.045822 -0.038673
v 0.101056 0.045822 -0.000000
v 0.093364 0.045822 0.038672
v 0.071458 0.045822 0.071458
v 0.038672 0.045822 0.093364
v -0.000000 0.045822 0.101057
v -0.038673 0.045822 0.093364
v -0.071458 0.045822 0.071458
v -0.093365 0.045822 0.038672
v -0.097666 0.045032 -0.040455
v -0.163727 0.033422 -0.067818
v -0.040454 0.045032 -0.097665
v -0.067818 0.033422 -0.163727
v 0.040454 0.045032 -0.097665
v 0.067818 0.033422 -0.163727
v 0.097665 0.045032 -0.040455
v 0.163726 0.033422 -0.067818
v 0.097665 0.045032 0.040454
v 0.163726 0.033422 0.067818
v 0.040454 0.045032 0.097665
v 0.067817 0.033422 0.163727
v -0.040454 0.045032 0.097665
v -0.067818 0.033422 0.163726
v -0.097666 0.045032 0.040454
v -0.163727 0.033422 0.067817
v -0.122010 0.027616 -0.122011
v 0.122010 0.027616 -0.122010
v 0.122010 0.027616 0.122010
v -0.122011 0.027616 0.122010
v -0.078051 0.037650 -0.078051
v 0.078050 0.037650 -0.078051
v 0.078051 0.037650 0.078051
v -0.078051 0.037650 0.078051
vt 0.120574 0.430037
vt 0.127511 0.462206
vt 0.114287 0.456693
vt 0.143837 0.439887
vt 0.137799 0.472723
vt 0.161687 0.458003
vt 0.143799 0.486474
vt 0.171507 0.481655
vt 0.144372 0.501384
vt 0.171719 0.507281
vt 0.139327 0.515232
vt 0.162217 0.530987
vt 0.129484 0.525949
vt 0.144431 0.549148
vt 0.116390 0.531924
vt 0.121108 0.558967
vt 0.102145 0.532265
vt 0.095872 0.558932
vt 0.088914 0.526795
vt 0.072613 0.549067
vt 0.078731 0.516267
vt 0.054815 0.530946
vt 0.072735 0.502498
vt 0.045025 0.507293
vt 0.072168 0.487578
vt 0.044828 0.481677
vt 0.077215 0.473724
vt 0.054328 0.457985
vt 0.087064 0.462999
vt 0.006924 0.633439
vt 0.030996 0.624917
vt 0.030774 0.628236
vt 0.072085 0.439830
vt 0.100059 0.456995
vt 0.095364 0.430006
vt 0.128340 0.391305
vt 0.165969 0.407075
vt 0.194720 0.436043
vt 0.210405 0.473778
vt 0.195382 0.552681
vt 0.210687 0.514697
vt 0.128947 0.597719
vt 0.166677 0.581887
vt 0.088083 0.597681
vt 0.021762 0.552856
vt 0.050458 0.581859
vt 0.006144 0.515126
vt 0.021200 0.436321
vt 0.005902 0.474250
vt 0.049851 0.407148
vt 0.087514 0.391305
vt 0.297929 0.396802
vt 0.328988 0.413125
vt 0.298496 0.408588
vt 0.237054 0.660213
vt 0.226636 0.633815
vt 0.243975 0.636275
vt 0.216218 0.660213
vt 0.226636 0.658735
vt 0.272632 0.373809
vt 0.304225 0.347981
vt 0.284019 0.377847
vt 0.260315 0.374608
vt 0.277342 0.340006
vt 0.195837 0.660553
vt 0.185419 0.634155
vt 0.202758 0.636615
vt 0.175000 0.660553
vt 0.185419 0.659075
vt 0.241632 0.389785
vt 0.205455 0.396761
vt 0.212673 0.371052
vt 0.237796 0.401007
vt 0.205728 0.424293
vt 0.154488 0.660422
vt 0.144070 0.634023
vt 0.161410 0.636484
vt 0.133652 0.660422
vt 0.144070 0.658944
vt 0.264216 0.435113
vt 0.234564 0.459675
vt 0.252955 0.431531
vt 0.276243 0.434084
vt 0.260239 0.466938
vt 0.113679 0.660286
vt 0.103260 0.633888
vt 0.120600 0.636348
vt 0.092842 0.660286
vt 0.103260 0.658808
vt 0.322031 0.437771
vt 0.294716 0.419538
vt 0.287457 0.634199
vt 0.268995 0.652937
vt 0.282400 0.631829
vt 0.293054 0.634392
vt 0.283252 0.658814
vt 0.298321 0.632376
vt 0.298661 0.658752
vt 0.302444 0.628443
vt 0.312863 0.652788
vt 0.329638 0.627647
vt 0.323720 0.641867
vt 0.304814 0.623202
vt 0.329734 0.612222
vt 0.303390 0.612216
vt 0.305202 0.617525
vt 0.299640 0.608068
vt 0.323926 0.597928
vt 0.294549 0.605718
vt 0.313065 0.586964
vt 0.288903 0.605507
vt 0.298812 0.581019
vt 0.283583 0.607492
vt 0.283347 0.581009
vt 0.279407 0.611375
vt 0.269045 0.586942
vt 0.252177 0.612235
vt 0.258097 0.597911
vt 0.277016 0.616567
vt 0.252177 0.627720
vt 0.276775 0.622282
vt 0.258084 0.642012
vt 0.278679 0.627643
vt 0.040410 0.635179
vt 0.034056 0.633787
vt 0.071809 0.620546
vt 0.046936 0.622617
vt 0.066912 0.608653
vt 0.031849 0.631353
vt 0.011896 0.645326
vt 0.044693 0.620179
vt 0.057813 0.599551
vt 0.021051 0.654356
vt 0.045908 0.594618
vt 0.041647 0.618748
vt 0.037064 0.635144
vt 0.032943 0.659163
vt 0.033009 0.594600
vt 0.038258 0.618585
vt 0.045735 0.659095
vt 0.021063 0.599507
vt 0.035039 0.619685
vt 0.066721 0.645225
vt 0.043671 0.634058
vt 0.046268 0.631876
vt 0.057579 0.654224
vt 0.011896 0.608612
vt 0.032491 0.621912
vt 0.071737 0.633401
vt 0.047799 0.628965
vt 0.006924 0.620533
vt 0.048028 0.625707
vt 0.331533 0.386730
vt 0.331145 0.413466
vt 0.327864 0.361599
vt 0.329094 0.386757
vt 0.330016 0.360363
vt 0.277700 0.337621
vt 0.305308 0.345522
vt 0.248224 0.338196
vt 0.248504 0.340829
vt 0.220603 0.344355
vt 0.222156 0.346354
vt 0.210243 0.370219
vt 0.203195 0.396422
vt 0.210493 0.449877
vt 0.203195 0.424510
vt 0.233713 0.462075
vt 0.208514 0.451355
vt 0.259910 0.469200
vt 0.287948 0.468849
vt 0.287700 0.466341
vt 0.314315 0.463199
vt 0.312846 0.461282
vt 0.324353 0.438576
vt 0.296041 0.397328
vt 0.290872 0.387498
vt 0.292291 0.386416
vt 0.282935 0.379537
vt 0.272384 0.375709
vt 0.260947 0.376540
vt 0.251053 0.382537
vt 0.249891 0.381121
vt 0.243349 0.390824
vt 0.239653 0.401246
vt 0.240405 0.412429
vt 0.238519 0.413002
vt 0.245886 0.422058
vt 0.244497 0.423177
vt 0.253982 0.429830
vt 0.264411 0.433251
vt 0.275608 0.432204
vt 0.286444 0.427723
vt 0.285332 0.426322
vt 0.293062 0.418505
vt 0.296681 0.408342
vt 0.320683 0.377766
vt 0.306203 0.387548
vt 0.310627 0.360525
vt 0.239101 0.350647
vt 0.250688 0.367015
vt 0.224121 0.364434
vt 0.214978 0.433448
vt 0.230914 0.422358
vt 0.228162 0.448262
vt 0.296682 0.457069
vt 0.285597 0.441400
vt 0.311097 0.443994
vt 0.318034 0.367599
vt 0.229824 0.355256
vt 0.219310 0.442553
vt 0.305582 0.452726
vt 0.301154 0.379750
vt 0.295168 0.373001
vt 0.242948 0.371999
vt 0.235819 0.378334
vt 0.235682 0.429929
vt 0.241795 0.436970
vt 0.293099 0.436637
vt 0.300047 0.430606
vt 0.209296 0.636275
vt 0.168079 0.636615
vt 0.126731 0.636484
vt 0.085921 0.636348
vn -0.9808 0.0000 -0.1951
vn -0.8315 0.0000 -0.5556
vn -0.5556 0.0000 -0.8315
vn -0.1951 0.0000 -0.9808
vn 0.1951 0.0000 -0.9808
vn 0.5556 0.0000 -0.8315
vn 0.8315 0.0000 -0.5556
vn 0.9808 0.0000 -0.1951
vn 0.9808 0.0000 0.1951
vn 0.8315 0.0000 0.5556
vn 0.5556 0.0000 0.8315
vn 0.1951 0.0000 0.9808
vn -0.1951 0.0000 0.9808
vn -0.5556 0.0000 0.8315
vn 0.5357 0.2651 0.8017
vn -0.8315 0.0000 0.5556
vn -0.9808 0.0000 0.1951
vn 0.0000 -1.0000 -0.0000
vn -0.3657 0.9279 -0.0728
vn -0.3101 0.9279 -0.2072
vn -0.2072 0.9279 -0.3101
vn -0.0728 0.9279 -0.3658
vn 0.0728 0.9279 -0.3658
vn 0.2072 0.9279 -0.3101
vn 0.3101 0.9279 -0.2072
vn 0.3658 0.9279 -0.0728
vn 0.3658 0.9279 0.0728
vn 0.3101 0.9279 0.2072
vn 0.2072 0.9279 0.3101
vn 0.0728 0.9279 0.3658
vn -0.0728 0.9279 0.3658
vn -0.2072 0.9279 0.3101
vn -0.3101 0.9279 0.2072
vn -0.3658 0.9279 0.0728
vn -0.1602 0.9866 -0.0319
vn -0.1360 0.9866 -0.0903
vn -0.0908 0.9868 -0.1344
vn -0.0319 0.9866 -0.1602
vn 0.0319 0.9866 -0.1602
vn 0.0903 0.9866 -0.1360
vn 0.1344 0.9868 -0.0908
vn 0.1602 0.9866 -0.0319
vn 0.1602 0.9866 0.0319
vn 0.1360 0.9866 0.0903
vn 0.0908 0.9868 0.1344
vn 0.0319 0.9866 0.1602
vn -0.0319 0.9866 0.1602
vn -0.0903 0.9866 0.1360
vn -0.1344 0.9868 0.0908
vn -0.1602 0.9866 0.0319
vn -0.0794 0.9967 -0.0158
vn -0.0673 0.9967 -0.0450
vn -0.0450 0.9967 -0.0673
vn -0.0158 0.9967 -0.0794
vn 0.0158 0.9967 -0.0794
vn 0.0450 0.9967 -0.0673
vn 0.0673 0.9967 -0.0450
vn 0.0794 0.9967 -0.0158
vn 0.0794 0.9967 0.0158
vn 0.0673 0.9967 0.0450
vn 0.0450 0.9967 0.0673
vn 0.0158 0.9967 0.0794
vn -0.0158 0.9967 0.0794
vn -0.0450 0.9967 0.0673
vn -0.0673 0.9967 0.0450
vn -0.0794 0.9967 0.0158
vn 0.0000 1.0000 0.0000
vn -0.1881 0.2651 -0.9457
vn 0.1881 0.2651 0.9457
vn 0.1881 0.2651 -0.9457
vn -0.1881 0.2652 0.9457
vn 0.5357 0.2651 -0.8017
vn -0.5357 0.2651 0.8017
vn 0.8017 0.2651 -0.5357
vn -0.8017 0.2651 0.5357
vn 0.9457 0.2651 -0.1881
vn -0.9457 0.2651 -0.1881
vn -0.9457 0.2651 0.1881
vn 0.9457 0.2651 0.1881
vn -0.8017 0.2652 -0.5357
vn 0.8017 0.2652 0.5357
vn -0.5357 0.2651 -0.8017
vn -0.1672 0.9854 -0.0333
vn -0.1417 0.9854 -0.0947
vn -0.0947 0.9854 -0.1417
vn -0.0333 0.9854 -0.1672
vn 0.0333 0.9854 -0.1672
vn 0.0947 0.9854 -0.1417
vn 0.1417 0.9854 -0.0947
vn 0.1672 0.9854 -0.0333
vn 0.1672 0.9854 0.0333
vn 0.1417 0.9854 0.0947
vn 0.0947 0.9854 0.1417
vn 0.0333 0.9854 0.1672
vn -0.0333 0.9854 0.1672
vn -0.0947 0.9854 0.1417
vn -0.1417 0.9854 0.0947
vn -0.1672 0.9854 0.0333
vn 0.1720 0.6865 -0.7065
vn -0.7065 0.6865 0.1720
vn 0.7065 0.6865 0.1720
vn -0.1720 0.6865 -0.7065
vn -0.1720 0.6865 0.7065
vn 0.7065 0.6865 -0.1720
vn -0.7065 0.6865 -0.1720
vn 0.1720 0.6865 0.7065
vn 0.6488 0.6254 0.4335
vn 0.4355 0.6190 0.6536
vn -0.4335 0.6255 0.6487
vn -0.6536 0.6190 0.4355
vn -0.6487 0.6255 -0.4335
vn -0.4355 0.6190 -0.6536
vn 0.4335 0.6255 -0.6487
vn 0.6536 0.6190 -0.4355
vn -0.7052 0.5273 -0.4740
vn -0.4693 0.5352 -0.7024
vn 0.4740 0.5272 -0.7052
vn 0.7024 0.5352 -0.4693
vn 0.7052 0.5273 0.4740
vn 0.4693 0.5352 0.7023
vn -0.4740 0.5272 0.7052
vn -0.7024 0.5352 0.4693
vn -0.3658 0.9279 -0.0728
vn -0.3657 0.9279 0.0727
vn -0.1344 0.9868 -0.0908
vn -0.0903 0.9866 -0.1360
vn 0.0908 0.9868 -0.1344
vn 0.1360 0.9866 -0.0903
vn 0.1344 0.9868 0.0908
vn 0.0903 0.9866 0.1360
vn -0.0908 0.9868 0.1344
vn -0.1360 0.9866 0.0903
vn -0.1881 0.2651 0.9457
vn -0.5357 0.2652 0.8017
vn -0.8017 0.2651 -0.5357
vn 0.8017 0.2651 0.5357
vn 0.1418 0.9854 0.0947
vn 0.6536 0.6190 0.4355
vn 0.4335 0.6255 0.6487
vn -0.4355 0.6190 0.6536
vn -0.6487 0.6255 0.4335
vn -0.6536 0.6190 -0.4355
vn -0.4335 0.6255 -0.6487
vn 0.4355 0.6190 -0.6536
vn 0.6487 0.6255 -0.4335
vn -0.7024 0.5352 -0.4693
vn -0.4740 0.5273 -0.7052
vn 0.4693 0.5352 -0.7024
vn 0.7052 0.5272 -0.4740
vn 0.7024 0.5352 0.4693
vn 0.4740 0.5273 0.7052
vn -0.4693 0.5352 0.7024
vn -0.7052 0.5272 0.4740
s off
f 34/1/1 3/2/1 1/3/1
f 33/4/2 5/5/2 3/2/2
f 35/6/3 7/7/3 5/5/3
f 36/8/4 9/9/4 7/7/4
f 37/10/5 11/11/5 9/9/5
f 38/12/6 13/13/6 11/11/6
f 39/14/7 15/15/7 13/13/7
f 40/16/8 17/17/8 15/15/8
f 41/18/9 19/19/9 17/17/9
f 42/20/10 21/21/10 19/19/10
f 43/22/11 23/23/11 21/21/11
f 44/24/12 25/25/12 23/23/12
f 45/26/13 27/27/13 25/25/13
f 46/28/14 29/29/14 27/27/14
f 24/30/15 91/31/15 92/32/15
f 47/33/16 31/34/16 29/29/16
f 48/35/17 1/3/17 31/34/17
f 29/29/18 3/2/18 9/9/18
f 98/36/19 33/4/19 34/1/19
f 97/37/20 35/6/20 33/4/20
f 99/38/21 36/8/21 35/6/21
f 100/39/22 37/10/22 36/8/22
f 102/40/23 37/10/23 101/41/23
f 102/40/24 39/14/24 38/12/24
f 104/42/25 39/14/25 103/43/25
f 105/44/26 40/16/26 104/42/26
f 105/44/27 42/20/27 41/18/27
f 107/45/28 42/20/28 106/46/28
f 107/45/29 44/24/29 43/22/29
f 108/47/30 45/26/30 44/24/30
f 110/48/31 45/26/31 109/49/31
f 110/48/32 47/33/32 46/28/32
f 111/50/33 48/35/33 47/33/33
f 112/51/34 34/1/34 48/35/34
f 129/52/35 50/53/35 66/54/35
f 65/55/36 145/56/36 49/57/36
f 68/58/37 145/56/37 149/59/37
f 69/60/38 132/61/38 131/62/38
f 133/63/39 53/64/39 69/60/39
f 70/65/40 146/66/40 54/67/40
f 72/68/41 146/66/41 150/69/41
f 135/70/42 57/71/42 136/72/42
f 73/73/43 138/74/43 57/71/43
f 74/75/44 147/76/44 58/77/44
f 76/78/45 147/76/45 151/79/45
f 77/80/46 140/81/46 139/82/46
f 141/83/47 61/84/47 77/80/47
f 78/85/48 148/86/48 62/87/48
f 80/88/49 148/86/49 152/89/49
f 66/54/50 144/90/50 143/91/50
f 4/92/51 114/93/51 2/94/51
f 6/95/52 113/96/52 4/92/52
f 8/97/53 115/98/53 6/95/53
f 10/99/54 116/100/54 8/97/54
f 10/99/55 118/101/55 117/102/55
f 12/103/56 119/104/56 118/101/56
f 16/105/57 119/104/57 14/106/57
f 18/107/58 120/108/58 16/105/58
f 20/109/59 121/110/59 18/107/59
f 22/111/60 122/112/60 20/109/60
f 24/113/61 123/114/61 22/111/61
f 26/115/62 124/116/62 24/113/62
f 26/115/63 126/117/63 125/118/63
f 28/119/64 127/120/64 126/117/64
f 30/121/65 128/122/65 127/120/65
f 2/94/66 128/122/66 32/123/66
f 91/31/67 96/124/67 94/125/67
f 8/126/68 85/127/68 10/128/68
f 24/30/69 93/129/69 26/130/69
f 10/128/70 86/131/70 12/132/70
f 26/130/71 94/125/71 28/133/71
f 14/134/72 86/131/72 87/135/72
f 28/133/73 95/136/73 30/137/73
f 16/138/74 87/135/74 88/139/74
f 32/140/75 95/136/75 96/124/75
f 18/141/76 88/139/76 89/142/76
f 4/143/77 82/144/77 81/145/77
f 2/146/78 96/124/78 82/144/78
f 20/147/79 89/142/79 90/148/79
f 6/149/80 81/145/80 83/150/80
f 22/151/81 90/148/81 91/31/81
f 6/149/82 84/152/82 8/126/82
f 50/53/83 97/153/83 98/154/83
f 51/155/84 97/153/84 130/156/84
f 132/61/85 99/157/85 51/155/85
f 132/61/86 101/158/86 100/159/86
f 53/64/87 102/160/87 101/158/87
f 134/161/88 103/162/88 102/160/88
f 55/163/89 104/164/89 103/162/89
f 57/71/90 104/164/90 136/72/90
f 138/74/91 105/165/91 57/71/91
f 59/166/92 106/167/92 138/74/92
f 59/166/93 108/168/93 107/169/93
f 140/81/94 109/170/94 108/168/94
f 61/84/95 110/171/95 109/170/95
f 142/172/96 111/173/96 110/171/96
f 144/90/97 111/173/97 63/174/97
f 50/53/98 112/175/98 144/90/98
f 66/54/83 113/176/83 129/52/83
f 129/52/84 115/177/84 67/178/84
f 67/178/85 116/179/85 131/62/85
f 69/60/86 116/179/86 117/180/86
f 133/63/87 117/180/87 118/181/87
f 133/63/88 119/182/88 71/183/88
f 135/70/89 119/182/89 120/184/89
f 73/73/90 120/184/90 121/185/90
f 73/73/91 122/186/91 137/187/91
f 137/187/92 123/188/92 75/189/92
f 75/189/93 124/190/93 139/82/93
f 77/80/94 124/190/94 125/191/94
f 141/83/95 125/191/95 126/192/95
f 79/193/96 126/192/96 127/194/96
f 143/91/97 127/194/97 128/195/97
f 66/54/98 128/195/98 114/196/98
f 49/197/99 129/52/99 65/198/99
f 52/199/100 131/62/100 132/61/100
f 54/200/101 133/63/101 70/201/101
f 56/202/102 135/70/102 136/72/102
f 58/203/103 137/187/103 74/204/103
f 60/205/104 139/82/104 140/81/104
f 62/206/105 141/83/105 78/207/105
f 64/208/106 143/91/106 144/90/106
f 49/197/107 51/155/107 130/156/107
f 52/199/108 51/155/108 145/209/108
f 54/200/109 55/163/109 134/161/109
f 56/202/110 55/163/110 146/210/110
f 58/203/111 59/166/111 138/74/111
f 60/205/112 59/166/112 147/211/112
f 62/206/113 63/174/113 142/172/113
f 64/208/114 63/174/114 148/212/114
f 65/198/115 67/178/115 149/213/115
f 68/214/116 67/178/116 131/62/116
f 70/201/117 71/183/117 150/215/117
f 72/216/118 71/183/118 135/70/118
f 74/204/119 75/189/119 151/217/119
f 76/218/120 75/189/120 139/82/120
f 78/207/121 79/193/121 152/219/121
f 80/220/122 79/193/122 143/91/122
f 34/1/1 33/4/1 3/2/1
f 33/4/2 35/6/2 5/5/2
f 35/6/3 36/8/3 7/7/3
f 36/8/4 37/10/4 9/9/4
f 37/10/5 38/12/5 11/11/5
f 38/12/6 39/14/6 13/13/6
f 39/14/7 40/16/7 15/15/7
f 40/16/8 41/18/8 17/17/8
f 41/18/9 42/20/9 19/19/9
f 42/20/10 43/22/10 21/21/10
f 43/22/11 44/24/11 23/23/11
f 44/24/12 45/26/12 25/25/12
f 45/26/13 46/28/13 27/27/13
f 46/28/14 47/33/14 29/29/14
f 24/30/15 22/151/15 91/31/15
f 47/33/16 48/35/16 31/34/16
f 48/35/17 34/1/17 1/3/17
f 31/34/18 1/3/18 3/2/18
f 3/2/18 5/5/18 9/9/18
f 5/5/18 7/7/18 9/9/18
f 9/9/18 11/11/18 13/13/18
f 29/29/18 13/13/18 23/23/18
f 13/13/18 15/15/18 23/23/18
f 9/9/18 13/13/18 29/29/18
f 15/15/18 17/17/18 23/23/18
f 17/17/18 19/19/18 23/23/18
f 19/19/18 21/21/18 23/23/18
f 23/23/18 25/25/18 29/29/18
f 25/25/18 27/27/18 29/29/18
f 29/29/18 31/34/18 3/2/18
f 98/36/123 97/37/123 33/4/123
f 97/37/20 99/38/20 35/6/20
f 99/38/21 100/39/21 36/8/21
f 100/39/22 101/41/22 37/10/22
f 102/40/23 38/12/23 37/10/23
f 102/40/24 103/43/24 39/14/24
f 104/42/25 40/16/25 39/14/25
f 105/44/26 41/18/26 40/16/26
f 105/44/27 106/46/27 42/20/27
f 107/45/28 43/22/28 42/20/28
f 107/45/29 108/47/29 44/24/29
f 108/47/30 109/49/30 45/26/30
f 110/48/31 46/28/31 45/26/31
f 110/48/32 111/50/32 47/33/32
f 111/50/33 112/51/33 48/35/33
f 112/51/124 98/36/124 34/1/124
f 129/52/35 130/156/35 50/53/35
f 65/55/125 149/59/125 145/56/125
f 68/58/126 52/221/126 145/56/126
f 69/60/38 53/64/38 132/61/38
f 133/63/39 134/161/39 53/64/39
f 70/65/127 150/69/127 146/66/127
f 72/68/128 56/222/128 146/66/128
f 135/70/42 73/73/42 57/71/42
f 73/73/43 137/187/43 138/74/43
f 74/75/129 151/79/129 147/76/129
f 76/78/130 60/223/130 147/76/130
f 77/80/46 61/84/46 140/81/46
f 141/83/47 142/172/47 61/84/47
f 78/85/131 152/89/131 148/86/131
f 80/88/132 64/224/132 148/86/132
f 66/54/50 50/53/50 144/90/50
f 4/92/51 113/96/51 114/93/51
f 6/95/52 115/98/52 113/96/52
f 8/97/53 116/100/53 115/98/53
f 10/99/54 117/102/54 116/100/54
f 10/99/55 12/103/55 118/101/55
f 12/103/56 14/106/56 119/104/56
f 16/105/57 120/108/57 119/104/57
f 18/107/58 121/110/58 120/108/58
f 20/109/59 122/112/59 121/110/59
f 22/111/60 123/114/60 122/112/60
f 24/113/61 124/116/61 123/114/61
f 26/115/62 125/118/62 124/116/62
f 26/115/63 28/119/63 126/117/63
f 28/119/64 30/121/64 127/120/64
f 30/121/65 32/123/65 128/122/65
f 2/94/66 114/93/66 128/122/66
f 83/150/67 81/145/67 96/124/67
f 81/145/67 82/144/67 96/124/67
f 96/124/67 95/136/67 94/125/67
f 83/150/67 96/124/67 91/31/67
f 94/125/67 93/129/67 92/32/67
f 91/31/67 94/125/67 92/32/67
f 91/31/67 90/148/67 88/139/67
f 90/148/67 89/142/67 88/139/67
f 88/139/67 87/135/67 86/131/67
f 91/31/67 88/139/67 83/150/67
f 86/131/67 85/127/67 83/150/67
f 88/139/67 86/131/67 83/150/67
f 85/127/67 84/152/67 83/150/67
f 8/126/68 84/152/68 85/127/68
f 24/30/69 92/32/69 93/129/69
f 10/128/70 85/127/70 86/131/70
f 26/130/133 93/129/133 94/125/133
f 14/134/72 12/132/72 86/131/72
f 28/133/134 94/125/134 95/136/134
f 16/138/74 14/134/74 87/135/74
f 32/140/75 30/137/75 95/136/75
f 18/141/76 16/138/76 88/139/76
f 4/143/77 2/146/77 82/144/77
f 2/146/78 32/140/78 96/124/78
f 20/147/79 18/141/79 89/142/79
f 6/149/135 4/143/135 81/145/135
f 22/151/136 20/147/136 90/148/136
f 6/149/82 83/150/82 84/152/82
f 50/53/83 130/156/83 97/153/83
f 51/155/84 99/157/84 97/153/84
f 132/61/85 100/159/85 99/157/85
f 132/61/86 53/64/86 101/158/86
f 53/64/87 134/161/87 102/160/87
f 134/161/88 55/163/88 103/162/88
f 55/163/89 136/72/89 104/164/89
f 57/71/90 105/165/90 104/164/90
f 138/74/91 106/167/91 105/165/91
f 59/166/92 107/169/92 106/167/92
f 59/166/93 140/81/93 108/168/93
f 140/81/94 61/84/94 109/170/94
f 61/84/95 142/172/95 110/171/95
f 142/172/96 63/174/96 111/173/96
f 144/90/97 112/175/97 111/173/97
f 50/53/98 98/154/98 112/175/98
f 66/54/83 114/196/83 113/176/83
f 129/52/84 113/176/84 115/177/84
f 67/178/85 115/177/85 116/179/85
f 69/60/86 131/62/86 116/179/86
f 133/63/87 69/60/87 117/180/87
f 133/63/88 118/181/88 119/182/88
f 135/70/89 71/183/89 119/182/89
f 73/73/90 135/70/90 120/184/90
f 73/73/91 121/185/91 122/186/91
f 137/187/137 122/186/137 123/188/137
f 75/189/93 123/188/93 124/190/93
f 77/80/94 139/82/94 124/190/94
f 141/83/95 77/80/95 125/191/95
f 79/193/96 141/83/96 126/192/96
f 143/91/97 79/193/97 127/194/97
f 66/54/98 143/91/98 128/195/98
f 49/197/99 130/156/99 129/52/99
f 52/199/100 68/214/100 131/62/100
f 54/200/101 134/161/101 133/63/101
f 56/202/102 72/216/102 135/70/102
f 58/203/103 138/74/103 137/187/103
f 60/205/104 76/218/104 139/82/104
f 62/206/105 142/172/105 141/83/105
f 64/208/106 80/220/106 143/91/106
f 49/197/138 145/209/138 51/155/138
f 52/199/139 132/61/139 51/155/139
f 54/200/140 146/210/140 55/163/140
f 56/202/141 136/72/141 55/163/141
f 58/203/142 147/211/142 59/166/142
f 60/205/143 140/81/143 59/166/143
f 62/206/144 148/212/144 63/174/144
f 64/208/145 144/90/145 63/174/145
f 65/198/146 129/52/146 67/178/146
f 68/214/147 149/213/147 67/178/147
f 70/201/148 133/63/148 71/183/148
f 72/216/149 150/215/149 71/183/149
f 74/204/150 137/187/150 75/189/150
f 76/218/151 151/217/151 75/189/151
f 78/207/152 141/83/152 79/193/152
f 80/220/153 152/219/153 79/193/153
