# Blender v2.80 (sub 75) OBJ File: 'HEADQUARTERS.blend'
# www.blender.org
o beam_0.5x2_Cube.391_beam_0.5x2_Cube.062_beam_0.5x2_Cube.391_beam_0.5x2_Cube.478
v -13.424445 16.368977 1.000916
v -13.481112 16.368977 1.000916
v -12.970742 16.368977 1.000916
v -13.027409 16.368977 1.000916
v -13.372225 16.368977 1.000916
v -13.372225 16.318977 1.000916
v -13.424445 16.318977 1.000916
v -13.027409 16.318977 1.000916
v -13.079632 16.318977 1.000916
v -13.027411 16.368923 -0.999085
v -12.970744 16.368923 -0.999085
v -13.481114 16.368923 -0.999085
v -13.424448 16.368923 -0.999085
v -13.372226 16.368923 -0.999085
v -13.079632 16.368977 1.000916
v -13.079632 16.368923 -0.999085
v -13.079632 16.318922 -0.999085
v -13.027411 16.318922 -0.999085
v -13.424448 16.318922 -0.999085
v -13.372226 16.318922 -0.999085
v -12.970742 15.999331 1.000916
v -12.970744 15.999277 -0.999085
v -13.481114 15.999277 -0.999085
v -13.481112 15.999331 1.000916
vt 0.000062 0.257745
vt 0.999939 0.257753
vt 0.999939 0.272022
vt 0.000062 0.272017
vt 0.000062 0.093141
vt 0.999939 0.093138
vt 0.999940 0.107407
vt 0.000062 0.107414
vt 0.000062 0.145741
vt 0.999939 0.145742
vt 0.999939 0.219418
vt 0.000062 0.219417
vt 0.000062 0.232003
vt 0.999939 0.232008
vt 0.999939 0.245158
vt 0.000062 0.245155
vt 0.000062 0.120000
vt 0.999939 0.119997
vt 0.999939 0.133146
vt 0.000062 0.133151
vt 0.999938 0.365099
vt 0.000060 0.365095
vt 0.000061 0.000063
vt 0.999938 0.000060
vn 0.0000 1.0000 -0.0000
vn -0.3761 0.8076 -0.4542
vn 1.0000 0.0000 -0.0000
vn -1.0000 0.0000 0.0000
vn -0.6303 0.7173 -0.2971
s off
f 10/1/1 4/2/1 3/3/1 11/4/1
f 12/5/1 2/6/1 1/7/1 13/8/1
f 14/9/1 5/10/1 15/11/1 16/12/1
f 17/13/1 9/14/1 8/15/2 18/16/1
f 19/17/1 7/18/1 6/19/2 20/20/1
f 13/8/3 1/7/3 7/18/3 19/17/3
f 16/12/3 15/11/3 9/14/3 17/13/3
f 4/2/4 10/1/4 18/16/4 8/15/5
f 5/10/4 14/9/4 20/20/4 6/19/5
f 11/4/3 3/3/3 21/21/3 22/22/3
f 2/6/4 12/5/4 23/23/4 24/24/4
